<svg xmlns="http://www.w3.org/2000/svg" width="340" height="340" version="1.1" viewBox="0 0 340 340"><path fill="#1ABCFE" d="M 0 41C 0 18.3566 18.3563 0 40.9998 0C 63.6434 0 82 18.3563 82 41C 82 63.6437 63.6434 82 40.9998 82C 18.3563 82 0 63.6434 0 41Z" transform="translate(168 131)"/><path fill="#0ACF83" d="M 0 41C 0 18.3563 18.3563 0 41 0L 82 0L 82 41C 82 63.6437 63.6437 82 41 82C 18.3563 82 0 63.6437 0 41Z" transform="translate(86 213)"/><path fill="#FF7262" d="M 0 0L 0 82L 41 82C 63.6437 82 82 63.6437 82 41C 82 18.3563 63.6437 0 41 0L 0 0Z" transform="translate(168 49)"/><path fill="#F24E1E" d="M 0 41C 0 63.6437 18.3563 82 41 82L 82 82L 82 0L 41 0C 18.3563 0 0 18.3563 0 41Z" transform="translate(86 49)"/><path fill="#A259FF" d="M 0 41C 0 63.6437 18.3563 82 41 82L 82 82L 82 0L 41 0C 18.3563 0 0 18.3563 0 41Z" transform="translate(86 131)"/></svg>